<svg width="798" height="817" viewBox="0 0 798 817" fill="none" xmlns="http://www.w3.org/2000/svg">
<path fill-rule="evenodd" clip-rule="evenodd" d="M251.82 361.58C216.153 303.836 179.756 263.879 168.219 270.692C155.895 277.969 176.6 335.849 214.464 399.971C215.972 402.525 217.485 405.05 219 407.544C216.57 403.61 214.144 399.594 211.729 395.505C173.865 331.382 153.16 273.502 165.483 266.225C177.316 259.238 215.296 301.445 251.82 361.58Z" fill="white"/>
<path fill-rule="evenodd" clip-rule="evenodd" d="M252 453.964C287.667 511.708 324.064 551.665 335.602 544.852C347.925 537.575 327.22 479.695 289.356 415.573C287.848 413.019 286.336 410.494 284.821 408C287.25 411.934 289.677 415.95 292.092 420.039C329.956 484.161 350.661 542.042 338.337 549.319C326.505 556.306 288.524 514.099 252 453.964Z" fill="white"/>
<path fill-rule="evenodd" clip-rule="evenodd" d="M491.305 813.605C448.267 839.019 306.178 678.081 173.94 454.139C41.7022 230.197 -30.6082 28.0541 12.4301 2.63992C55.4685 -22.7742 197.558 138.164 329.796 362.106C416.559 509.038 477.524 646.586 497.038 730.99L494.008 729.195L482.279 748.995L485.721 751.034L497.193 731.665C507.253 775.529 506.03 804.91 491.305 813.605ZM300.319 490.173C291.61 495.316 262.858 462.749 236.099 417.434C209.34 372.119 194.708 331.214 203.417 326.072C212.126 320.929 240.878 353.496 267.637 398.811C294.395 444.126 309.028 485.031 300.319 490.173ZM76.661 126.209C96.2009 114.67 157.844 182.344 218.25 280.14C156.392 178.294 92.0677 106.811 72.0279 118.644C51.1572 130.968 86.2228 228.994 150.349 337.59C154.438 344.515 158.546 351.315 162.66 357.975C160.095 353.753 157.535 349.478 154.982 345.155C90.856 236.558 55.7904 138.533 76.661 126.209ZM239.836 337.922C199.777 273.071 158.9 228.197 145.942 235.849C132.101 244.023 155.357 309.035 197.887 381.059C199.583 383.932 201.285 386.773 202.99 389.579C200.257 385.156 197.529 380.64 194.814 376.042C152.284 304.018 129.028 239.006 142.869 230.832C156.159 222.985 198.814 270.385 239.836 337.922ZM116.723 189.633C132.412 180.368 181.908 234.706 230.412 313.231C180.742 231.454 129.094 174.057 113.003 183.559C96.2443 193.455 124.401 272.165 175.891 359.364C179.175 364.925 182.474 370.386 185.778 375.735C183.718 372.343 181.662 368.91 179.611 365.438C128.121 278.239 99.9645 199.529 116.723 189.633ZM271 489.657C311.059 554.509 351.936 599.382 364.894 591.73C378.736 583.557 355.48 518.544 312.95 446.521C311.253 443.647 309.551 440.806 307.847 438C310.579 442.423 313.307 446.939 316.023 451.537C358.553 523.561 381.809 588.573 367.967 596.747C354.677 604.595 312.022 557.195 271 489.657ZM394.114 637.946C378.424 647.211 328.928 592.874 280.425 514.348C330.094 596.125 381.743 653.522 397.834 644.02C414.592 634.124 386.436 555.414 334.945 468.215C331.661 462.655 328.362 457.193 325.058 451.844C327.118 455.236 329.175 458.669 331.225 462.142C382.716 549.34 410.872 628.051 394.114 637.946ZM292.586 547.439C352.993 645.236 414.635 712.909 434.175 701.371C455.046 689.046 419.98 591.021 355.854 482.424C353.301 478.101 350.741 473.826 348.176 469.604C352.29 476.264 356.398 483.064 360.487 489.989C424.614 598.585 459.679 696.611 438.809 708.935C418.769 720.768 354.444 649.285 292.586 547.439Z" fill="black"/>
<rect x="520.147" y="655.131" width="33" height="77" rx="10" transform="rotate(30 520.147 655.131)" fill="black"/>
<rect x="774.955" y="226.688" width="20" height="526" transform="rotate(30 774.955 226.688)" fill="black"/>
</svg>
