<svg width="2447" height="1096" viewBox="0 0 2447 1096" fill="none" xmlns="http://www.w3.org/2000/svg">
<path fill-rule="evenodd" clip-rule="evenodd" d="M491.305 813.605C448.267 839.019 306.178 678.081 173.94 454.139C41.7022 230.197 -30.6082 28.0541 12.4301 2.63992C55.4685 -22.7742 197.558 138.164 329.796 362.106C416.559 509.038 477.524 646.586 497.038 730.99L494.008 729.195L482.279 748.995L485.721 751.034L497.193 731.665C507.253 775.529 506.03 804.91 491.305 813.605ZM300.319 490.173C291.61 495.316 262.858 462.749 236.099 417.434C209.34 372.119 194.708 331.214 203.417 326.072C212.126 320.929 240.878 353.496 267.637 398.811C294.395 444.126 309.028 485.031 300.319 490.173ZM129.793 296.494L128.923 299.742C78.7316 207.07 53.618 129.515 72.0279 118.644C89.2137 108.496 138.969 159.623 191.807 238.627L188.506 237.743C140.717 168.438 96.9005 124.715 81.2398 133.962C64.3181 143.955 85.6774 212.599 129.793 296.494ZM218.321 304.511C184.787 255.49 153.834 224.358 142.869 230.832C129.027 239.006 152.284 304.018 194.814 376.042C195.34 376.934 195.868 377.823 196.396 378.709L196.814 377.148C157.088 309.09 135.61 248.325 148.733 240.576C158.742 234.666 186.032 261.27 216.349 304.241L216.414 304L218.321 304.511ZM113.003 183.559C125.796 176.004 161.069 210.741 199.953 266.398L198.605 266.037C162.21 215.264 129.836 184.233 117.749 191.371C105.496 198.606 117.522 243.042 145.204 300.567L144.773 302.176C113.958 240.069 100.036 191.216 113.003 183.559ZM375.528 518.215L376.399 514.967C426.59 607.639 451.703 685.194 433.293 696.065C416.108 706.213 366.353 655.086 313.515 576.082L316.815 576.966C364.605 646.271 408.421 689.994 424.081 680.747C441.003 670.754 419.644 602.11 375.528 518.215ZM287 510.198C320.534 559.219 351.487 590.351 362.452 583.877C376.294 575.703 353.038 510.691 310.508 438.667C309.981 437.775 309.454 436.886 308.926 436L308.508 437.561C348.233 505.619 369.712 566.384 356.588 574.133C346.579 580.043 319.289 553.439 288.972 510.468L288.908 510.709L287 510.198ZM392.319 631.15C379.525 638.705 344.252 603.968 305.368 548.31L306.716 548.672C343.111 599.445 375.485 630.476 387.572 623.339C399.826 616.103 387.799 571.667 360.117 514.142L360.548 512.533C391.363 574.64 405.285 623.493 392.319 631.15Z" fill="white"/>
<rect x="520.147" y="655.131" width="33" height="77" rx="10" transform="rotate(30 520.147 655.131)" fill="white"/>
<rect x="774.955" y="226.688" width="20" height="526" transform="rotate(30 774.955 226.688)" fill="white"/>
<path d="M822 299.017C822 294.037 826.037 290 831.017 290V290C835.984 290 840.015 294.016 840.034 298.983L841.962 805.981C841.983 811.508 837.508 816 831.981 816V816C826.469 816 822 811.531 822 806.019V299.017Z" fill="white"/>
<path d="M842 806.983C842 811.963 846.037 816 851.017 816V816C855.984 816 860.015 811.984 860.034 807.017L861.962 300.019C861.983 294.492 857.508 290 851.981 290V290C846.469 290 842 294.469 842 299.981V806.983Z" fill="white"/>
<path d="M870.141 807.058C870.203 812.037 874.29 816.024 879.269 815.962V815.962C884.236 815.901 888.217 811.835 888.174 806.868L883.811 300.109C883.763 294.582 879.233 290.146 873.707 290.214V290.214C868.195 290.283 863.782 294.807 863.85 300.319L870.141 807.058Z" fill="white"/>
<path d="M1415.38 807.225C1415.44 812.204 1419.53 816.191 1424.51 816.129V816.129C1429.47 816.068 1433.46 812.002 1433.41 807.035L1429.05 299.939C1429 294.412 1424.47 289.976 1418.94 290.045V290.045C1413.43 290.113 1409.02 294.637 1409.09 300.149L1415.38 807.225Z" fill="white"/>
<path d="M791.158 806.733C791.058 811.712 795.013 815.829 799.992 815.929V815.929C804.958 816.029 809.069 812.094 809.188 807.129L821.276 300.264C821.408 294.738 817.024 290.157 811.498 290.047V290.047C805.986 289.936 801.429 294.314 801.319 299.826L791.158 806.733Z" fill="white"/>
<path d="M2038.01 298.797C2038.01 293.817 2042.05 289.78 2047.03 289.78V289.78C2051.99 289.78 2056.03 293.797 2056.04 298.763L2057.97 805.761C2057.99 811.289 2053.52 815.78 2047.99 815.78V815.78C2042.48 815.78 2038.01 811.312 2038.01 805.799V298.797Z" fill="white"/>
<path d="M2058.01 806.763C2058.01 811.743 2062.05 815.78 2067.03 815.78V815.78C2071.99 815.78 2076.03 811.764 2076.04 806.798L2077.97 299.799C2077.99 294.272 2073.52 289.78 2067.99 289.78V289.78C2062.48 289.78 2058.01 294.249 2058.01 299.761V806.763Z" fill="white"/>
<path d="M2086.15 806.838C2086.21 811.818 2090.3 815.804 2095.28 815.743V815.743C2100.24 815.681 2104.23 811.615 2104.18 806.649L2099.82 299.889C2099.77 294.362 2095.24 289.926 2089.72 289.995V289.995C2084.2 290.063 2079.79 294.587 2079.86 300.099L2086.15 806.838Z" fill="white"/>
<path d="M2007.17 806.514C2007.07 811.493 2011.02 815.61 2016 815.71V815.71C2020.97 815.809 2025.08 811.874 2025.2 806.909L2037.29 300.044C2037.42 294.518 2033.03 289.938 2027.51 289.827V289.827C2022 289.717 2017.44 294.095 2017.33 299.606L2007.17 806.514Z" fill="white"/>
<path d="M959.161 806.874C959.061 811.853 963.016 815.97 967.995 816.07V816.07C972.961 816.169 977.072 812.235 977.191 807.269L989.279 300.371C989.411 294.845 985.027 290.265 979.501 290.154V290.154C973.99 290.044 969.433 294.422 969.322 299.933L959.161 806.874Z" fill="white"/>
<path d="M1367 299.017C1367 294.037 1371.04 290 1376.02 290V290C1380.98 290 1385.02 294.016 1385.03 298.983L1386.96 805.981C1386.98 811.508 1382.51 816 1376.98 816V816C1371.47 816 1367 811.531 1367 806.019V299.017Z" fill="white"/>
<path d="M1387 806.983C1387 811.963 1391.04 816 1396.02 816V816C1400.98 816 1405.02 811.984 1405.03 807.017L1406.96 300.019C1406.98 294.492 1402.51 290 1396.98 290V290C1391.47 290 1387 294.469 1387 299.981V806.983Z" fill="white"/>
<path d="M1346 806.983C1346 811.963 1350.04 816 1355.02 816V816C1359.98 816 1364.02 811.984 1364.03 807.017L1365.96 300.019C1365.98 294.492 1361.51 290 1355.98 290V290C1350.47 290 1346 294.469 1346 299.981V806.983Z" fill="white"/>
<path d="M1031.03 299.155C1031.02 294.175 1035.04 290.126 1040.02 290.11V290.11C1044.99 290.094 1049.03 294.098 1049.07 299.064L1052.6 805.912C1052.64 811.439 1048.17 815.945 1042.65 815.962V815.962C1037.14 815.98 1032.65 811.525 1032.64 806.013L1031.03 299.155Z" fill="white"/>
<path d="M1031 299.017C1031 294.037 1026.96 290 1021.98 290V290C1017.02 290 1012.98 294.016 1012.97 298.983L1011.04 805.981C1011.02 811.508 1015.49 816 1021.02 816V816C1026.53 816 1031 811.531 1031 806.019L1031 299.017Z" fill="white"/>
<path d="M1011.44 806.691C1011.46 811.671 1007.43 815.721 1002.45 815.737V815.737C997.486 815.752 993.441 811.749 993.407 806.782L989.877 300.249C989.838 294.722 994.299 290.216 999.826 290.199V290.199C1005.34 290.182 1009.82 294.636 1009.84 300.148L1011.44 806.691Z" fill="white"/>
<path d="M1344.29 650.217C1346.64 654.612 1344.98 660.078 1340.58 662.425V662.425C1336.2 664.765 1330.75 663.125 1328.39 658.756L1137.27 305.004C1134.64 300.14 1136.47 294.067 1141.35 291.463V291.463C1146.21 288.867 1152.25 290.702 1154.85 295.562L1344.29 650.217Z" fill="white"/>
<path d="M1344.42 802.512C1346.8 806.882 1345.2 812.359 1340.83 814.745V814.745C1336.47 817.125 1331 815.53 1328.61 811.179L1049.87 304.694C1047.21 299.852 1048.98 293.767 1053.84 291.118V291.118C1058.67 288.476 1064.74 290.257 1067.38 295.097L1344.42 802.512Z" fill="white"/>
<path d="M1344 690.504C1346.39 694.876 1344.78 700.355 1340.41 702.742V702.742C1336.05 705.122 1330.59 703.531 1328.19 699.182L1110.75 304.921C1108.08 300.081 1109.85 293.993 1114.7 291.344V291.344C1119.54 288.703 1125.6 290.483 1128.24 295.32L1344 690.504Z" fill="white"/>
<path d="M1088.31 294.214C1085.93 289.843 1080.45 288.235 1076.08 290.621V290.621C1071.72 293.001 1070.11 298.459 1072.47 302.827L1327.28 773.565C1329.91 778.426 1335.99 780.223 1340.84 777.574V777.574C1345.68 774.933 1347.46 768.869 1344.82 764.03L1088.31 294.214Z" fill="white"/>
<path d="M1109.14 294.871C1106.75 290.5 1101.28 288.891 1096.9 291.278V291.278C1092.55 293.658 1090.93 299.114 1093.29 303.483L1327.15 735.828C1329.78 740.69 1335.86 742.489 1340.71 739.84V739.84C1345.55 737.199 1347.33 731.135 1344.69 726.297L1109.14 294.871Z" fill="white"/>
<path d="M2427.42 724.618C2432.4 724.708 2436.42 728.824 2436.39 733.809V733.809C2436.37 738.773 2432.34 742.733 2427.38 742.673L2120.92 738.965C2115.39 738.898 2110.92 734.343 2110.95 728.813V728.813C2110.97 723.308 2115.46 718.926 2120.96 719.026L2427.42 724.618Z" fill="white"/>
<path d="M2437.97 795.984C2442.96 795.99 2447 800.035 2447 805.021V805.021C2447 809.985 2442.99 814.014 2438.02 814.038L2122.59 815.582C2117.06 815.609 2112.56 811.131 2112.56 805.601V805.601C2112.56 800.095 2117.03 795.636 2122.54 795.642L2437.97 795.984Z" fill="white"/>
<path d="M2422.13 742.657C2427.11 742.662 2431.15 746.709 2431.15 751.695V751.695C2431.15 756.659 2427.14 760.688 2422.18 760.713L2122.62 762.269C2117.09 762.298 2112.59 757.82 2112.59 752.29V752.29C2112.59 746.784 2117.06 742.326 2122.56 742.332L2422.13 742.657Z" fill="white"/>
<path d="M2121.3 776.844C2116.32 776.839 2112.27 780.876 2112.27 785.862V785.862C2112.27 790.827 2116.28 794.864 2121.24 794.9L2426.15 797.113C2431.68 797.153 2436.18 792.685 2436.18 787.155V787.155C2436.18 781.649 2431.72 777.181 2426.21 777.175L2121.3 776.844Z" fill="white"/>
<path d="M2117.03 758.877C2112.05 758.871 2108 762.909 2108 767.895V767.895C2108 772.859 2112.01 776.896 2116.97 776.933L2415.98 779.159C2421.51 779.2 2426.01 774.732 2426.01 769.202V769.202C2426.01 763.696 2421.55 759.228 2416.04 759.222L2117.03 758.877Z" fill="white"/>
<path d="M1726.09 604.648C1728.43 609.044 1726.77 614.512 1722.38 616.86V616.86C1718 619.199 1712.55 617.561 1710.19 613.195L1543.41 304.99C1540.78 300.128 1542.61 294.052 1547.48 291.447V291.447C1552.34 288.852 1558.38 290.687 1560.98 295.545L1726.09 604.648Z" fill="white"/>
<path d="M1684.57 683.918C1686.96 688.29 1685.35 693.769 1680.97 696.157V696.157C1676.62 698.536 1671.15 696.945 1668.75 692.597L1454.86 304.832C1452.19 299.992 1453.96 293.904 1458.81 291.255V291.255C1463.65 288.614 1469.71 290.394 1472.35 295.231L1684.57 683.918Z" fill="white"/>
<path d="M1714.71 626.054C1717.1 630.428 1715.49 635.909 1711.12 638.297V638.297C1706.76 640.676 1701.3 639.087 1698.9 634.741L1516.62 304.855C1513.94 300.016 1515.72 293.925 1520.57 291.276V291.276C1525.4 288.636 1531.46 290.416 1534.1 295.251L1714.71 626.054Z" fill="white"/>
<path d="M1494.44 294.633C1492.05 290.26 1486.57 288.651 1482.2 291.038V291.038C1477.84 293.418 1476.23 298.873 1478.59 303.242L1677.76 672.04C1680.39 676.904 1686.47 678.705 1691.32 676.056V676.056C1696.16 673.416 1697.94 667.355 1695.3 662.518L1494.44 294.633Z" fill="white"/>
<path d="M1514.98 294.762C1512.59 290.389 1507.11 288.78 1502.74 291.167V291.167C1498.38 293.547 1496.76 299.001 1499.12 303.371L1687.72 652.786C1690.35 657.651 1696.43 659.453 1701.28 656.804V656.804C1706.12 654.163 1707.9 648.103 1705.26 643.267L1514.98 294.762Z" fill="white"/>
<path d="M1627.22 802.368C1624.96 806.703 1626.61 812.118 1630.9 814.464V814.464C1635.18 816.804 1640.47 815.206 1642.74 810.889L1909.15 304.39C1911.68 299.587 1909.86 293.57 1905.1 290.966V290.966C1900.35 288.368 1894.47 290.154 1891.96 294.954L1627.22 802.368Z" fill="white"/>
<path d="M1707.67 802.275C1705.37 806.59 1706.96 812.022 1711.23 814.408V814.408C1715.49 816.788 1720.8 815.238 1723.11 810.941L1995.48 304.249C1998.05 299.468 1996.29 293.433 1991.55 290.784V290.784C1986.83 288.142 1980.93 289.874 1978.38 294.652L1707.67 802.275Z" fill="white"/>
<path d="M1647.4 802.2C1645.1 806.515 1646.7 811.947 1650.97 814.332V814.332C1655.22 816.713 1660.54 815.162 1662.85 810.866L1935.06 304.466C1937.63 299.685 1935.87 293.65 1931.13 291.001V291.001C1926.41 288.359 1920.51 290.091 1917.96 294.869L1647.4 802.2Z" fill="white"/>
<path d="M1956.75 294.161C1959.05 289.847 1964.37 288.283 1968.64 290.669V290.669C1972.9 293.049 1974.5 298.463 1972.22 302.775L1703.63 810.452C1701.09 815.25 1695.18 816.997 1690.44 814.348V814.348C1685.72 811.706 1683.95 805.691 1686.5 800.912L1956.75 294.161Z" fill="white"/>
<path d="M1936.64 294.378C1938.94 290.063 1944.27 288.499 1948.53 290.885V290.885C1952.79 293.265 1954.39 298.679 1952.11 302.992L1683.56 810.606C1681.02 815.405 1675.11 817.151 1670.37 814.503V814.503C1665.64 811.861 1663.88 805.845 1666.43 801.067L1936.64 294.378Z" fill="white"/>
<path d="M1320 933.375L1323.66 949.688V1092H1289.34V933.375H1320ZM1452.75 931.688C1459.12 931.688 1465.12 933 1470.75 935.625C1476.38 938.062 1481.25 941.625 1485.38 946.312C1489.69 951 1492.97 956.625 1495.22 963.188C1497.66 969.562 1498.88 976.5 1498.88 984V1092H1465.12V1005.66C1465.12 999.281 1465.03 993.281 1464.84 987.656C1464.84 981.844 1464.28 976.688 1463.16 972.188C1462.03 967.688 1460.16 964.219 1457.53 961.781C1455.09 959.156 1451.25 957.844 1446 957.844C1444.69 957.844 1441.88 958.125 1437.56 958.688C1433.25 959.25 1428.28 960.844 1422.66 963.469V941.25C1427.72 938.25 1432.88 935.906 1438.12 934.219C1443.38 932.531 1448.25 931.688 1452.75 931.688ZM1404.09 953.344C1406.34 956.719 1407.94 960.375 1408.88 964.312C1410 968.062 1410.66 972 1410.84 976.125C1411.22 980.25 1411.31 984.562 1411.12 989.062C1411.12 993.375 1411.12 997.969 1411.12 1002.84V1092H1377.09V1005.66C1377.09 999.281 1377.09 993.281 1377.09 987.656C1377.09 981.844 1376.53 976.688 1375.41 972.188C1374.28 967.688 1372.41 964.219 1369.78 961.781C1367.16 959.156 1363.31 957.844 1358.25 957.844C1356 957.844 1352.62 958.312 1348.12 959.25C1343.81 960 1339.5 961.406 1335.19 963.469V941.25C1339.69 938.625 1344.47 936.469 1349.53 934.781C1354.78 933.094 1359.94 932.25 1365 932.25C1373.62 932.25 1380.84 934.031 1386.66 937.594C1392.66 941.156 1398.47 946.406 1404.09 953.344ZM1574.81 1044.19C1574.81 1052.62 1576.5 1058.91 1579.88 1063.03C1583.44 1067.16 1588.5 1069.59 1595.06 1070.34V1093.12C1594.31 1093.31 1593.09 1093.41 1591.41 1093.41C1585.03 1093.41 1578.84 1092.56 1572.84 1090.88C1567.03 1089.19 1561.88 1086.47 1557.38 1082.72C1552.88 1078.97 1549.31 1074 1546.69 1067.81C1544.25 1061.62 1543.03 1054.03 1543.03 1045.03C1543.03 1036.41 1544.81 1029 1548.38 1022.81C1552.12 1016.44 1556.81 1011.28 1562.44 1007.34C1568.25 1003.22 1574.81 1000.22 1582.12 998.344C1589.44 996.281 1596.84 995.25 1604.34 995.25H1616.72V1015.22H1610.53C1606.78 1015.22 1602.84 1015.59 1598.72 1016.34C1594.59 1017.09 1590.75 1018.5 1587.19 1020.56C1583.62 1022.62 1580.62 1025.62 1578.19 1029.56C1575.94 1033.31 1574.81 1038.19 1574.81 1044.19ZM1662.28 1045.03C1662.28 1046.53 1662.38 1048.78 1662.56 1051.78C1662.75 1054.59 1663.12 1057.5 1663.69 1060.5C1664.25 1063.5 1665.09 1066.22 1666.22 1068.66C1667.53 1071.09 1669.22 1072.69 1671.28 1073.44L1662.28 1092.28C1659.84 1092.28 1657.22 1091.72 1654.41 1090.59C1651.78 1089.47 1649.16 1087.88 1646.53 1085.81C1644.09 1083.75 1641.94 1081.5 1640.06 1079.06C1638.38 1076.44 1637.06 1073.62 1636.12 1070.62C1634.25 1075.31 1630.5 1079.53 1624.88 1083.28C1619.44 1086.84 1613.34 1089.47 1606.59 1091.16V1069.78C1611.09 1068.84 1615.12 1067.06 1618.69 1064.44C1622.44 1061.62 1625.62 1058.34 1628.25 1054.59V995.25C1628.25 986.062 1627.78 978.75 1626.84 973.312C1625.91 967.875 1624.31 963.938 1622.06 961.5C1619.81 958.875 1617 957.281 1613.62 956.719C1610.44 955.969 1606.59 955.594 1602.09 955.594C1597.97 955.594 1594.03 956.156 1590.28 957.281C1586.72 958.219 1583.34 959.438 1580.16 960.938C1577.16 962.25 1574.44 963.75 1572 965.438C1569.75 967.125 1568.06 968.438 1566.94 969.375L1554.28 949.969C1556.16 947.906 1558.97 945.844 1562.72 943.781C1566.47 941.531 1570.78 939.562 1575.66 937.875C1580.53 936.188 1585.78 934.875 1591.41 933.938C1597.22 932.812 1603.22 932.25 1609.41 932.25C1615.03 932.25 1620.47 932.812 1625.72 933.938C1631.16 935.062 1636.03 936.938 1640.34 939.562C1644.84 942.188 1648.69 945.75 1651.88 950.25C1655.25 954.562 1657.59 960 1658.91 966.562C1660.22 973.125 1661.06 979.781 1661.44 986.531C1662 993.094 1662.28 999.656 1662.28 1006.22V1042.78V1045.03ZM1746.38 933.375L1750.03 949.406V1092H1716V933.375H1746.38ZM1834.12 950.812C1837.31 954 1839.75 957.75 1841.44 962.062C1843.31 966.188 1844.62 970.594 1845.38 975.281C1846.31 979.781 1846.88 984.375 1847.06 989.062C1847.25 993.75 1847.34 998.344 1847.34 1002.84V1086.38V1092H1813.03V1005.66C1813.03 999.281 1812.75 993.188 1812.19 987.375C1811.62 981.562 1810.31 976.406 1808.25 971.906C1806.19 967.406 1803.38 963.938 1799.81 961.5C1796.25 958.875 1791.28 957.562 1784.91 957.562C1782.28 957.562 1778.72 958.031 1774.22 958.969C1769.91 959.719 1765.69 961.031 1761.56 962.906V941.25C1766.62 938.625 1772.06 936.375 1777.88 934.5C1783.88 932.625 1789.69 931.688 1795.31 931.688C1803.75 931.688 1810.88 933.469 1816.69 937.031C1822.5 940.406 1828.31 945 1834.12 950.812ZM1928.34 1092H1894.03V933.375H1928.34V1092ZM1931.44 882.75C1931.44 888.375 1929.47 893.156 1925.53 897.094C1921.59 900.844 1916.81 902.719 1911.19 902.719C1905.56 902.719 1900.78 900.75 1896.84 896.812C1893.09 892.875 1891.22 888.188 1891.22 882.75C1891.22 877.125 1893.19 872.344 1897.12 868.406C1901.06 864.469 1905.75 862.5 1911.19 862.5C1916.81 862.5 1921.59 864.469 1925.53 868.406C1929.47 872.344 1931.44 877.125 1931.44 882.75ZM2003.72 1044.19C2003.72 1052.62 2005.41 1058.91 2008.78 1063.03C2012.34 1067.16 2017.41 1069.59 2023.97 1070.34V1093.12C2023.22 1093.31 2022 1093.41 2020.31 1093.41C2013.94 1093.41 2007.75 1092.56 2001.75 1090.88C1995.94 1089.19 1990.78 1086.47 1986.28 1082.72C1981.78 1078.97 1978.22 1074 1975.59 1067.81C1973.16 1061.62 1971.94 1054.03 1971.94 1045.03C1971.94 1036.41 1973.72 1029 1977.28 1022.81C1981.03 1016.44 1985.72 1011.28 1991.34 1007.34C1997.16 1003.22 2003.72 1000.22 2011.03 998.344C2018.34 996.281 2025.75 995.25 2033.25 995.25H2045.62V1015.22H2039.44C2035.69 1015.22 2031.75 1015.59 2027.62 1016.34C2023.5 1017.09 2019.66 1018.5 2016.09 1020.56C2012.53 1022.62 2009.53 1025.62 2007.09 1029.56C2004.84 1033.31 2003.72 1038.19 2003.72 1044.19ZM2091.19 1045.03C2091.19 1046.53 2091.28 1048.78 2091.47 1051.78C2091.66 1054.59 2092.03 1057.5 2092.59 1060.5C2093.16 1063.5 2094 1066.22 2095.12 1068.66C2096.44 1071.09 2098.12 1072.69 2100.19 1073.44L2091.19 1092.28C2088.75 1092.28 2086.12 1091.72 2083.31 1090.59C2080.69 1089.47 2078.06 1087.88 2075.44 1085.81C2073 1083.75 2070.84 1081.5 2068.97 1079.06C2067.28 1076.44 2065.97 1073.62 2065.03 1070.62C2063.16 1075.31 2059.41 1079.53 2053.78 1083.28C2048.34 1086.84 2042.25 1089.47 2035.5 1091.16V1069.78C2040 1068.84 2044.03 1067.06 2047.59 1064.44C2051.34 1061.62 2054.53 1058.34 2057.16 1054.59V995.25C2057.16 986.062 2056.69 978.75 2055.75 973.312C2054.81 967.875 2053.22 963.938 2050.97 961.5C2048.72 958.875 2045.91 957.281 2042.53 956.719C2039.34 955.969 2035.5 955.594 2031 955.594C2026.88 955.594 2022.94 956.156 2019.19 957.281C2015.62 958.219 2012.25 959.438 2009.06 960.938C2006.06 962.25 2003.34 963.75 2000.91 965.438C1998.66 967.125 1996.97 968.438 1995.84 969.375L1983.19 949.969C1985.06 947.906 1987.88 945.844 1991.62 943.781C1995.38 941.531 1999.69 939.562 2004.56 937.875C2009.44 936.188 2014.69 934.875 2020.31 933.938C2026.12 932.812 2032.12 932.25 2038.31 932.25C2043.94 932.25 2049.38 932.812 2054.62 933.938C2060.06 935.062 2064.94 936.938 2069.25 939.562C2073.75 942.188 2077.59 945.75 2080.78 950.25C2084.16 954.562 2086.5 960 2087.81 966.562C2089.12 973.125 2089.97 979.781 2090.34 986.531C2090.91 993.094 2091.19 999.656 2091.19 1006.22V1042.78V1045.03ZM2250.38 974.438C2247.56 971.062 2243.62 967.969 2238.56 965.156C2233.69 962.156 2227.12 960.375 2218.88 959.812V932.812C2229.19 933.375 2238 935.625 2245.31 939.562C2252.81 943.312 2259.56 948.844 2265.56 956.156L2250.38 974.438ZM2218.88 1065.28C2225.62 1064.53 2231.34 1062.94 2236.03 1060.5C2240.91 1057.88 2245.5 1054.88 2249.81 1051.5L2262.47 1069.78C2256.66 1077.09 2250.38 1082.72 2243.62 1086.66C2236.88 1090.41 2228.62 1092.56 2218.88 1093.12V1065.28ZM2140.41 1012.69C2140.41 1002 2141.91 991.969 2144.91 982.594C2148.09 973.219 2152.69 964.969 2158.69 957.844C2164.69 950.719 2171.72 945 2179.78 940.688C2188.03 936.188 2197.22 933.562 2207.34 932.812V960.094C2197.97 962.156 2190.47 967.969 2184.84 977.531C2179.22 986.906 2176.41 998.344 2176.41 1011.84C2176.41 1018.78 2177.06 1025.34 2178.38 1031.53C2179.88 1037.53 2181.94 1042.88 2184.56 1047.56C2187.19 1052.25 2190.38 1056.19 2194.12 1059.38C2198.06 1062.56 2202.47 1064.53 2207.34 1065.28V1093.12C2197.03 1092.56 2187.75 1090.12 2179.5 1085.81C2171.25 1081.31 2164.22 1075.5 2158.41 1068.38C2152.59 1061.06 2148.09 1052.62 2144.91 1043.06C2141.91 1033.5 2140.41 1023.38 2140.41 1012.69ZM2305.78 978.656C2305.78 971.531 2307.09 965.156 2309.72 959.531C2312.34 953.719 2316 948.844 2320.69 944.906C2325.38 940.781 2330.62 937.594 2336.44 935.344C2342.44 932.906 2348.62 931.406 2355 930.844V958.969C2350.12 959.906 2346.28 961.875 2343.47 964.875C2340.84 967.875 2339.53 972.094 2339.53 977.531C2339.53 982.031 2340.94 985.688 2343.75 988.5C2346.75 991.125 2350.5 993.469 2355 995.531V1025.62C2351.81 1024.69 2348.53 1023.66 2345.16 1022.53C2341.97 1021.22 2338.78 1019.81 2335.59 1018.31C2325.66 1013.06 2318.16 1007.53 2313.09 1001.72C2308.22 995.906 2305.78 988.219 2305.78 978.656ZM2399.72 966.844C2394.66 964.219 2389.22 962.25 2383.41 960.938C2377.78 959.625 2372.16 958.781 2366.53 958.406V930.562C2374.97 930.938 2382.75 932.156 2389.88 934.219C2397 936.094 2403.94 939.188 2410.69 943.5L2399.72 966.844ZM2320.69 1056.56C2324.44 1059.19 2328.84 1061.62 2333.91 1063.88C2339.16 1066.12 2345.72 1067.25 2353.59 1067.25H2355V1093.41C2350.31 1093.41 2346 1093.22 2342.06 1092.84C2338.12 1092.66 2334.19 1092.09 2330.25 1091.16C2326.5 1090.03 2322.66 1088.53 2318.72 1086.66C2314.78 1084.78 2310.66 1082.34 2306.34 1079.34L2320.69 1056.56ZM2366.53 1000.03C2372.16 1001.91 2377.88 1003.97 2383.69 1006.22C2389.5 1008.47 2394.75 1011.28 2399.44 1014.66C2404.31 1018.03 2408.25 1022.25 2411.25 1027.31C2414.44 1032.19 2416.03 1038.38 2416.03 1045.88C2416.03 1053.19 2414.72 1059.56 2412.09 1065C2409.47 1070.44 2405.91 1075.12 2401.41 1079.06C2397.09 1083 2391.94 1086.09 2385.94 1088.34C2379.94 1090.59 2373.47 1092.09 2366.53 1092.84V1066.12C2372.91 1065 2377.78 1063.03 2381.16 1060.22C2384.72 1057.22 2386.5 1053.28 2386.5 1048.41C2386.5 1043.53 2384.53 1039.78 2380.59 1037.16C2376.84 1034.34 2372.16 1031.91 2366.53 1029.84V1000.03Z" fill="white"/>
</svg>
